<?xml version="1.0" encoding="UTF-8"?>
<!-- Created with Inkscape (http://www.inkscape.org/) -->
<svg width="512" height="512" version="1.1" viewBox="0 0 512 512" xmlns="http://www.w3.org/2000/svg">
 <path d="m203.5 436.22q0 24.576-30.208 24.576t-30.208-24.576v-354.3q0-11.776 6.656-20.992 6.656-9.728 25.6-9.728h174.08q18.432 0 19.456 25.6 1.024 26.112-19.456 26.112h-145.92zm131.07-189.95q0 8.704-3.584 16.896-3.072 7.68-9.216 13.312-5.632 5.632-13.312 9.216-7.68 3.072-16.896 3.072-17.408 0-29.696-12.288t-12.288-30.208 12.288-30.208 29.696-12.288q9.216 0 16.896 3.584 7.68 3.072 13.312 9.216 6.144 5.632 9.216 13.312 3.584 7.68 3.584 16.384z" fill="#007fff" stroke-width="40.891" aria-label="F"/>
</svg>
